<?xml version="1.0" encoding="UTF-8"?>
<svg version="1.1" xmlns="http://www.w3.org/2000/svg" width="512" height="512">
<path d="M0 0 C3.89936196 4.80646428 5.70344249 11.92057096 6 18 C5.45578095 21.53742384 4.32709784 24.68468598 3 28 C2.57589844 29.06476563 2.15179688 30.12953125 1.71484375 31.2265625 C-1.31743421 38.63486842 -1.31743421 38.63486842 -3 42 C-4.62463842 42.05395478 -6.24978541 42.09277195 -7.875 42.125 C-9.23238281 42.15980469 -9.23238281 42.15980469 -10.6171875 42.1953125 C-13 42 -13 42 -15 40 C-15.61719452 33.8280548 -14.99915333 30.94632123 -11 26 C-9.47151363 24.25315844 -7.94400757 22.51204963 -6.3671875 20.80859375 C-4.74853487 18.66734756 -3.90331129 16.51636717 -3 14 C-18.06045114 17.69223963 -28.3417878 26.09822767 -40.0234375 35.74609375 C-43.64177193 38.7268787 -47.33106846 41.60027918 -51.0625 44.4375 C-61.57186248 52.47865621 -69.1870205 61.07114146 -76.99609375 71.72265625 C-81.57956041 77.92381702 -86.33480954 83.88504931 -91.36987305 89.72338867 C-95.37938747 94.35106743 -95.37938747 94.35106743 -97.9140625 99.86328125 C-99.03115807 103.08999976 -100.43687155 105.39033209 -102.375 108.1875 C-105.42828384 112.83710651 -107.41340965 117.31684863 -109.17578125 122.57421875 C-110.41435673 126.21950488 -112.03308142 129.5702286 -114.19140625 132.76171875 C-117.46873794 137.89783557 -118.81984471 142.81980011 -119.875 148.75 C-120.00712891 149.48323486 -120.13925781 150.21646973 -120.27539062 150.97192383 C-120.90440881 154.90553397 -121.10558413 158.15317302 -120 162 C-114.28019894 160.57004973 -110.52614895 157.58064782 -106 154 C-99.5974026 149 -99.5974026 149 -95 149 C-94.690625 148.05125 -94.38125 147.1025 -94.0625 146.125 C-93 143 -93 143 -92 141 C-91.38125 140.9175 -90.7625 140.835 -90.125 140.75 C-89.42375 140.5025 -88.7225 140.255 -88 140 C-87.61457031 139.16082031 -87.22914063 138.32164062 -86.83203125 137.45703125 C-84.41260683 132.89159285 -81.14743575 129.61867564 -77.5625 125.9375 C-72.88014161 121.07452991 -68.29964915 116.31149478 -64.4375 110.75 C-63 109 -63 109 -60 108 C-58.76722873 106.13977928 -58.76722873 106.13977928 -57.8125 103.9375 C-57.29623047 102.83728516 -57.29623047 102.83728516 -56.76953125 101.71484375 C-56.51558594 101.14894531 -56.26164062 100.58304687 -56 100 C-55.34 100 -54.68 100 -54 100 C-53.75636719 99.29359375 -53.51273437 98.5871875 -53.26171875 97.859375 C-51.81700028 94.58527617 -49.99253155 92.08666756 -47.8125 89.25 C-47.21465698 88.46447754 -47.21465698 88.46447754 -46.60473633 87.66308594 C-44.76339367 85.2511294 -42.89229522 82.86589288 -40.9921875 80.5 C-38.15734937 76.96565636 -35.72228568 73.68556444 -33.8125 69.5625 C-31.85760469 65.72011955 -31.51787992 65.72721559 -28 64 C-27.30741771 62.00882592 -26.64252365 60.0078864 -26 58 C-24.375 55.625 -24.375 55.625 -22 54 C-17.03636364 53.21212121 -17.03636364 53.21212121 -14 54 C-11.70726782 56.08430198 -10.5370852 57.43454464 -9 60 C-8.60683594 60.61488281 -8.21367187 61.22976562 -7.80859375 61.86328125 C-3.92629878 68.61333417 -4.29975149 74.63919277 -6 82.0625 C-7.88795535 88.49419479 -11.01333194 94.27532655 -14.07421875 100.20703125 C-18.31651509 108.46148495 -21.14385549 117.19020216 -24 126 C-24.33 126.99 -24.66 127.98 -25 129 C-24.34 129 -23.68 129 -23 129 C-22.75507813 128.39027344 -22.51015625 127.78054688 -22.2578125 127.15234375 C-20.74919037 124.57081955 -19.52316811 123.89581112 -16.875 122.5625 C-13.87438949 120.99530215 -10.97049884 119.39678851 -8.125 117.5625 C-4.89498639 115.52998642 -1.6278086 113.57815792 1.6875 111.6875 C2.57824219 111.17574219 3.46898437 110.66398437 4.38671875 110.13671875 C7.16262446 108.92926201 9.00893908 108.76826014 12 109 C12 110.98 12 112.96 12 115 C11.360625 115.185625 10.72125 115.37125 10.0625 115.5625 C9.381875 116.036875 8.70125 116.51125 8 117 C7.65458149 119.33157492 7.32205743 121.66508361 7 124 C4.65383563 126.99338213 2.33786341 128.3310683 -1 130 C-1.66 130.99 -2.32 131.98 -3 133 C-4.28970703 133.40992188 -4.28970703 133.40992188 -5.60546875 133.828125 C-10.1183894 135.38609531 -13.48771657 137.94124774 -17.3125 140.75 C-21.85241149 144.05056085 -26.32413432 147.24905125 -31.1875 150.0625 C-38.79613967 155.06624756 -41.47462669 164.68474642 -44 173 C-45.5392461 177.34409456 -47.25087171 181.61191545 -49 185.875 C-50.71733215 190.10629747 -52.03365617 194.35816701 -53.19140625 198.7734375 C-54.09628277 201.26512645 -55.37213424 202.92277546 -57 205 C-57.74532891 206.68509144 -58.48735747 208.37216386 -59.18359375 210.078125 C-60.04252509 212.10010692 -61.0024953 214.04291854 -62 216 C-63.28682815 218.52491282 -64.41253172 220.99695165 -65.5 223.625 C-67.03388876 227.07624972 -68.89257577 229.86896972 -71 233 C-71.94911709 234.74372675 -72.88541675 236.49445937 -73.8125 238.25 C-76.31256433 242.89836081 -79.11159467 247.15731643 -82.19140625 251.4375 C-85.70098674 256.41003737 -89.27421571 261.54843143 -92 267 C-92.99 267 -93.98 267 -95 267 C-95.33 268.65 -95.66 270.3 -96 272 C-96.928125 272.0928125 -96.928125 272.0928125 -97.875 272.1875 C-98.926875 272.5896875 -98.926875 272.5896875 -100 273 C-100.433125 274.2065625 -100.433125 274.2065625 -100.875 275.4375 C-102 278 -102 278 -104.625 279.3125 C-109.94715095 280.39664186 -115.24993522 281.13774604 -120 278 C-127.1759718 267.51356607 -127.95323126 256.28110112 -126 244 C-124.71088757 239.79567482 -122.89925212 235.9592102 -121 232 C-120.42302325 230.66301255 -119.8530954 229.3229681 -119.2890625 227.98046875 C-116.59409751 221.5849217 -113.95763489 215.36197047 -110.04296875 209.59765625 C-108.81215956 207.80188156 -108.81215956 207.80188156 -107.5625 204.8125 C-105.62300718 201.32141293 -103.05139983 199.54283319 -100 197 C-99.46375 195.9275 -98.9275 194.855 -98.375 193.75 C-97 191 -97 191 -94.8125 190.125 C-94.214375 190.08375 -93.61625 190.0425 -93 190 C-93.144375 189.154375 -93.28875 188.30875 -93.4375 187.4375 C-92.86699089 182.9549284 -91.1017523 181.6757981 -87.859375 178.71875 C-85.79303607 176.89022704 -85.79303607 176.89022704 -83.5625 174 C-81.03992631 171.046743 -78.40606494 168.70670235 -75.45703125 166.203125 C-71.63764255 162.77842671 -68.06752404 159.10866301 -64.48046875 155.44311523 C-62.08209559 153.00762782 -59.8543043 150.90286953 -57 149 C-56.13048237 147.08939056 -56.13048237 147.08939056 -55.5625 144.875 C-54.59215658 141.68818794 -53.49147493 138.8217969 -51.9375 135.875 C-50.61174487 133.34355812 -49.79912218 131.29692764 -49 128.5 C-48.00353436 125.01237026 -46.62389668 122.19192202 -44.953125 119 C-43.55938136 116.07542318 -42.78457019 113.13828076 -42 110 C-45.59922886 112.85107454 -48.59110058 115.37462442 -51.125 119.25 C-53 122 -53 122 -55.625 122.9375 C-56.40875 123.288125 -57.1925 123.63875 -58 124 C-59.37967524 127.53514293 -59.37967524 127.53514293 -60 131 C-60.66 131 -61.32 131 -62 131 C-62.07605469 131.59167969 -62.15210938 132.18335938 -62.23046875 132.79296875 C-63.26137137 135.7496184 -64.75197848 136.55659408 -67.3125 138.3125 C-71.68938909 141.54157931 -73.52302425 144.22297535 -76 149 C-78.4375 151.625 -78.4375 151.625 -81 154 C-82.299375 155.36125 -82.299375 155.36125 -83.625 156.75 C-86 159 -86 159 -89 160 C-89.226875 160.70125 -89.45375 161.4025 -89.6875 162.125 C-92.21818843 167.66841275 -97.23684662 171.05545355 -102.5 173.875 C-111.12645051 176.64778766 -118.51387385 176.4481098 -127 173 C-132.07897134 169.32361563 -136.50203128 165.24695308 -140 160 C-140.45757343 156.87196649 -140.38077672 153.72063072 -140.375 150.5625 C-140.37338867 149.66611816 -140.37177734 148.76973633 -140.37011719 147.84619141 C-140.24287836 140.92414955 -139.62920495 134.07107741 -136 128 C-133.859375 126.6953125 -133.859375 126.6953125 -132 126 C-132.33 125.34 -132.66 124.68 -133 124 C-133.9034483 117.97701133 -131.22963906 112.93794815 -128 108 C-127.3090625 107.49210937 -126.618125 106.98421875 -125.90625 106.4609375 C-123.59199467 104.68730739 -123.30383645 103.62783529 -122.75 100.8125 C-122.5025 99.554375 -122.255 98.29625 -122 97 C-121.34 97 -120.68 97 -120 97 C-119.67 95.02 -119.34 93.04 -119 91 C-118.34 91 -117.68 91 -117 91 C-116.67 89.02 -116.34 87.04 -116 85 C-115.34 85 -114.68 85 -114 85 C-113.72285156 84.44441406 -113.44570313 83.88882813 -113.16015625 83.31640625 C-112.77730469 82.55199219 -112.39445312 81.78757812 -112 81 C-111.60683594 80.20464844 -111.21367187 79.40929687 -110.80859375 78.58984375 C-107.52814662 72.24390757 -103.72037598 66.9113159 -99.05078125 61.5078125 C-97.08744852 59.10693705 -95.56742848 56.66825253 -94 54 C-92.66666667 52.66666667 -91.33333333 51.33333333 -90 50 C-89.0409375 48.453125 -89.0409375 48.453125 -88.0625 46.875 C-85.78148622 43.69540503 -84.54383366 43.30562293 -81 42 C-80.33108583 40.66779279 -79.66472516 39.33430232 -79 38 C-77.34375 36.296875 -77.34375 36.296875 -75.5 34.75 C-74.8915625 34.22921875 -74.283125 33.7084375 -73.65625 33.171875 C-72 32 -72 32 -70 32 C-69.773125 31.401875 -69.54625 30.80375 -69.3125 30.1875 C-67.64390958 27.40651597 -65.8716168 26.4358084 -63 25 C-62.34 25 -61.68 25 -61 25 C-60.505 23.515 -60.505 23.515 -60 22 C-58.35666496 20.96210419 -56.68756133 19.96432076 -55 19 C-54.484375 18.443125 -53.96875 17.88625 -53.4375 17.3125 C-52 16 -52 16 -48 16 C-48 14.68 -48 13.36 -48 12 C-46.35 12 -44.7 12 -43 12 C-42.67 11.01 -42.34 10.02 -42 9 C-39.86240021 7.71862933 -37.80686634 6.62102043 -35.5625 5.5625 C-34.92578369 5.25755615 -34.28906738 4.9526123 -33.63305664 4.63842773 C-32.3495486 4.02925868 -31.06334354 3.42573745 -29.77441406 2.828125 C-28.27335598 2.12757615 -26.78715153 1.39533352 -25.3046875 0.65625 C-17.58471455 -2.9107342 -7.75054381 -4.1174764 0 0 Z M-68 177 C-69.32176485 177.90325616 -70.63215066 178.82317903 -71.9375 179.75 C-72.66839844 180.26046875 -73.39929688 180.7709375 -74.15234375 181.296875 C-76.26151123 183.24105474 -76.39443669 184.28329855 -77 187 C-77.94875 187.598125 -78.8975 188.19625 -79.875 188.8125 C-83.67163994 191.47014796 -84.21942928 193.81952962 -86 198 C-86.73992187 198.21527344 -87.47984375 198.43054688 -88.2421875 198.65234375 C-92.6522926 200.80742344 -94.24791587 204.74151702 -96.5625 208.9375 C-97.04847656 209.79762695 -97.53445313 210.65775391 -98.03515625 211.54394531 C-101.35282288 217.52791604 -103.95714209 223.46747132 -106 230 C-106.7734375 231.794375 -106.7734375 231.794375 -107.5625 233.625 C-108.036875 234.73875 -108.51125 235.8525 -109 237 C-109.28101563 237.60328125 -109.56203125 238.2065625 -109.8515625 238.828125 C-113.01528388 246.57480725 -112.25451293 254.78960125 -112 263 C-106.06856012 258.49210569 -102.29382958 253.70831226 -99 247 C-99 246.34 -99 245.68 -99 245 C-98.01 245 -97.02 245 -96 245 C-95.85304688 244.26136719 -95.70609375 243.52273438 -95.5546875 242.76171875 C-94.058632 235.99507691 -91.91350121 230.57062368 -88.41015625 224.60546875 C-87.06399041 222.11823159 -86.22080597 219.83300063 -85.4375 217.125 C-84.19335175 212.95820764 -82.07738554 211.07738554 -79 208 C-78.06905886 205.72207766 -77.37428944 203.43507124 -76.68359375 201.07421875 C-75.8753262 198.62170406 -74.62988624 196.98420934 -73 195 C-72.30085524 193.34669457 -71.63942802 191.67730559 -71 190 C-70.63519531 189.06800781 -70.27039063 188.13601563 -69.89453125 187.17578125 C-69.35892578 185.75845703 -69.35892578 185.75845703 -68.8125 184.3125 C-68.44769531 183.35988281 -68.08289063 182.40726563 -67.70703125 181.42578125 C-66.70738604 179.01887077 -66.70738604 179.01887077 -68 177 Z " fill="#000000" transform="translate(413,152)"/>
<path d="M0 0 C1.5507724 -0.00231125 1.5507724 -0.00231125 3.13287354 -0.00466919 C35.76430014 0.0008229 35.76430014 0.0008229 45.5625 4.375 C46.9546875 4.8390625 46.9546875 4.8390625 48.375 5.3125 C49.9528125 5.8384375 49.9528125 5.8384375 51.5625 6.375 C52.25214844 6.59027344 52.94179687 6.80554688 53.65234375 7.02734375 C59.29117832 8.91375315 59.29117832 8.91375315 60.8125 11.5 C61.06 12.11875 61.3075 12.7375 61.5625 13.375 C62.18511719 13.50648438 62.80773437 13.63796875 63.44921875 13.7734375 C66.85219656 14.7421225 67.70260673 17.13483099 69.38671875 20.0859375 C73.72841929 28.53855051 74.31061645 35.93738398 72.5625 45.375 C70.74962664 49.54559936 68.9266111 52.32627431 65.5625 55.375 C65.129375 55.87 64.69625 56.365 64.25 56.875 C58.93516387 61.59929878 52.56273755 63.50964403 45.875 65.4375 C39.87088609 66.96215283 39.87088609 66.96215283 34.5859375 69.96484375 C31.12618003 72.37598747 26.99211483 72.38637538 22.875 72.875 C16.92608211 73.59689116 11.56788632 74.61477808 5.92260742 76.63037109 C1.40708887 78.05504592 -3.270676 78.69240261 -7.9375 79.4375 C-14.16634886 80.45654295 -20.35024167 81.50396614 -26.49462891 82.95678711 C-28.41396131 83.36993318 -30.36534765 83.62375454 -32.3125 83.875 C-35.59200649 84.17735949 -35.59200649 84.17735949 -38.4375 86.375 C-40.70747334 86.93015652 -42.97855911 87.31954848 -45.28125 87.71484375 C-48.36852761 88.66004287 -49.86540328 90.35552309 -51.43310547 93.14916992 C-51.72072754 93.79474854 -52.00834961 94.44032715 -52.3046875 95.10546875 C-52.63090088 95.82259033 -52.95711426 96.53971191 -53.29321289 97.27856445 C-53.62957764 98.03226318 -53.96594238 98.78596191 -54.3125 99.5625 C-56.46499031 104.29976953 -58.56874852 108.86862527 -61.5 113.1875 C-63.67709865 116.04752831 -63.67709865 116.04752831 -63.23144531 118.40820312 C-61.88077145 121.7541529 -58.93244765 123.67063285 -56.1875 125.875 C-55.32705078 126.58462891 -55.32705078 126.58462891 -54.44921875 127.30859375 C-51.83886075 129.45515238 -49.20773854 131.54947127 -46.515625 133.59375 C-45.82984375 134.1815625 -45.1440625 134.769375 -44.4375 135.375 C-44.4375 136.035 -44.4375 136.695 -44.4375 137.375 C-43.756875 137.41625 -43.07625 137.4575 -42.375 137.5 C-38.25246347 138.72798961 -35.33753829 141.22423793 -32.4375 144.375 C-32.4375 145.035 -32.4375 145.695 -32.4375 146.375 C-31.86386719 146.4884375 -31.29023438 146.601875 -30.69921875 146.71875 C-24.66672005 148.46911232 -19.77116079 152.87232099 -15.5625 157.375 C-9.08720565 164.11157816 -1.28542886 169.26025771 6.26220703 174.71191406 C14.10117219 180.37939768 21.48969686 185.85892773 27.72265625 193.34375 C29.60888822 195.42621417 31.53520248 196.9870172 33.8125 198.625 C41.03473117 203.84263551 41.03473117 203.84263551 42.0078125 208.51171875 C42.3396331 212.87588094 41.95275687 214.84381703 39.3125 218.4375 C34.62965427 221.65209006 28.96326147 221.03292409 23.5625 220.375 C20.65844947 219.7179523 19.14601843 219.00373988 16.5625 217.375 C16.253125 216.570625 15.94375 215.76625 15.625 214.9375 C14.33359081 211.8229249 13.5420501 211.6663564 10.5625 210.3125 C9.510625 209.89291016 9.510625 209.89291016 8.4375 209.46484375 C6.09617599 208.10394917 5.75074973 206.75614107 4.5625 204.375 C3.23767527 203.6915809 1.90305225 203.02702905 0.5625 202.375 C-0.97375229 200.84699235 -2.44887412 199.2562705 -3.875 197.625 C-4.66519531 196.72910156 -5.45539063 195.83320313 -6.26953125 194.91015625 C-7.91303883 192.98828883 -9.50083107 191.04960698 -11.0625 189.0625 C-13.45092812 186.35980502 -15.79441756 184.58684617 -18.75390625 182.58203125 C-21.25969695 180.7855363 -23.28677912 178.57817749 -25.4375 176.375 C-26.78682427 175.22346824 -28.14137481 174.07804329 -29.5 172.9375 C-32.84557052 170.05468129 -35.02047445 167.08110585 -37.4375 163.375 C-38.49380409 162.44744939 -39.57856409 161.55143844 -40.6875 160.6875 C-42.04875 159.5428125 -42.04875 159.5428125 -43.4375 158.375 C-43.4375 157.385 -43.4375 156.395 -43.4375 155.375 C-45.0875 155.045 -46.7375 154.715 -48.4375 154.375 C-48.4375 153.715 -48.4375 153.055 -48.4375 152.375 C-49.0975 152.375 -49.7575 152.375 -50.4375 152.375 C-50.4375 151.055 -50.4375 149.735 -50.4375 148.375 C-51.283125 148.21 -52.12875 148.045 -53 147.875 C-57.80631225 145.77770011 -60.22651784 142.41873688 -63.4375 138.375 C-66.46853456 134.32843774 -66.46853456 134.32843774 -70.4375 131.375 C-70.72109375 131.94605469 -71.0046875 132.51710938 -71.296875 133.10546875 C-72.02386156 134.55197283 -72.76229648 135.9928194 -73.515625 137.42578125 C-79.91332039 149.77333335 -83.99997621 161.13695133 -85.89453125 174.8671875 C-86.4375 178.375 -86.4375 178.375 -87.4375 179.375 C-89.371919 179.50083966 -91.31152763 179.55078009 -93.25 179.5625 C-94.30832031 179.57667969 -95.36664063 179.59085938 -96.45703125 179.60546875 C-99.48047233 179.37167711 -100.99038822 179.12368717 -103.4375 177.375 C-106.97016145 172.80238652 -109.99092841 167.60028476 -109.75 161.6875 C-107.87680326 151.18421829 -101.97282203 141.01944935 -96.78515625 131.84765625 C-95.08482808 128.7279237 -93.66941682 125.52483661 -92.296875 122.25 C-91.4375 120.375 -91.4375 120.375 -89.4375 117.375 C-89.71130053 113.40489234 -92.1131349 110.47415346 -94.4375 107.375 C-96.07404821 106.00486661 -97.73553595 104.6629728 -99.4375 103.375 C-101.09239253 100.06521495 -101.32302641 96.91049725 -100.4375 93.375 C-93.72984041 85.29957742 -80.71971634 81.98920742 -71.1875 78.78125 C-65.81993938 76.03647468 -64.25553194 69.87215249 -62 64.5625 C-60.13197828 60.2217932 -58.27156256 55.89992728 -56.125 51.6875 C-54.72990393 48.94897808 -53.51545663 46.24955102 -52.4375 43.375 C-51.7775 43.375 -51.1175 43.375 -50.4375 43.375 C-50.685 42.1684375 -50.685 42.1684375 -50.9375 40.9375 C-51.52195568 36.77325324 -51.93230611 32.56827211 -51.4375 28.375 C-48.97776222 25.91526222 -48.14450615 26.05198325 -44.75 26 C-39.77377542 26.12925259 -36.11298812 26.89449799 -32.4375 30.375 C-29.018143 35.05251803 -27.53824358 39.57979194 -28.4375 45.375 C-29.54625511 47.95222085 -30.79857187 50.4030203 -32.125 52.875 C-34.37408597 57.15897328 -36.4375 61.47650775 -36.4375 66.375 C-35.87740234 66.07086182 -35.31730469 65.76672363 -34.74023438 65.45336914 C-32.35594055 64.33680576 -30.15617923 63.7133954 -27.59375 63.12109375 C-26.67722656 62.90646484 -25.76070313 62.69183594 -24.81640625 62.47070312 C-23.39134766 62.14489258 -23.39134766 62.14489258 -21.9375 61.8125 C-20.0520689 61.37375993 -18.16665171 60.93496011 -16.28125 60.49609375 C-15.44787109 60.3045874 -14.61449219 60.11308105 -13.75585938 59.91577148 C-12.26431611 59.56785991 -10.77698687 59.20106186 -9.29589844 58.81103516 C-6.89198351 58.24700572 -4.65281077 58.2800617 -2.1875 58.3125 C-1.29546875 58.32152344 -0.4034375 58.33054688 0.515625 58.33984375 C1.19109375 58.35144531 1.8665625 58.36304688 2.5625 58.375 C2.8925 57.385 3.2225 56.395 3.5625 55.375 C7.8525 55.045 12.1425 54.715 16.5625 54.375 C16.5625 53.715 16.5625 53.055 16.5625 52.375 C17.32433594 52.13265625 18.08617187 51.8903125 18.87109375 51.640625 C24.48964416 49.8168758 29.91878026 47.88725721 35.26171875 45.3671875 C37.9364247 44.21374894 40.66173504 43.38038679 43.4375 42.5 C47.2746726 41.1403296 48.32565998 40.69736558 50.8125 37.3125 C51.85266879 34.34369464 51.85266879 34.34369464 50.5625 31.375 C46.57845952 28.18776762 42.77177625 26.65060513 37.92578125 25.16015625 C34.79909483 24.12137283 31.86933322 22.75699516 28.8984375 21.33984375 C22.65185394 18.75973315 16.47939384 17.85343683 9.8125 17.25 C8.9059668 17.16435791 7.99943359 17.07871582 7.06542969 16.99047852 C-0.1862017 16.36102283 -7.38392759 16.21855419 -14.65917969 16.36083984 C-16.5849683 16.39616398 -18.5114457 16.38998042 -20.4375 16.375 C-20.9325 15.88 -20.9325 15.88 -21.4375 15.375 C-22.90487025 15.27581543 -24.37693909 15.24420159 -25.84765625 15.2421875 C-26.75580078 15.24089844 -27.66394531 15.23960937 -28.59960938 15.23828125 C-30.03530273 15.24408203 -30.03530273 15.24408203 -31.5 15.25 C-32.43005859 15.24613281 -33.36011719 15.24226562 -34.31835938 15.23828125 C-39.79260748 15.2459752 -45.02017035 15.60109576 -50.4375 16.375 C-52.29068992 16.55219744 -54.14480741 16.72017022 -56 16.875 C-56.9384375 16.96136719 -57.876875 17.04773438 -58.84375 17.13671875 C-60.8953904 17.32519776 -62.94760138 17.50746503 -65 17.6875 C-74.38192968 19.56388594 -82.30904062 24.00564444 -89.4375 30.375 C-90.45009721 32.0340433 -91.45097294 33.70032327 -92.4375 35.375 C-95.49432283 38.33467804 -97.72649396 38.80671565 -101.9375 38.8125 C-105.3170719 38.69518509 -107.11961489 38.54503157 -110.125 36.9375 C-112.1529215 32.9782247 -112.4628595 29.71141622 -111.4375 25.375 C-108.11349494 19.15342475 -103.31111966 16.33852844 -96.73828125 14.3203125 C-95.64902344 14.00835937 -94.55976562 13.69640625 -93.4375 13.375 C-92.03392258 12.91783285 -90.63165524 12.45663102 -89.23046875 11.9921875 C-87.73756262 11.51380039 -86.24407151 11.03723495 -84.75 10.5625 C-84.04955566 10.33087158 -83.34911133 10.09924316 -82.62744141 9.8605957 C-77.50259747 8.3055496 -73.70757676 8.41088944 -68.4375 9.375 C-68.4375 8.715 -68.4375 8.055 -68.4375 7.375 C-66.98063397 7.05572936 -65.52187649 6.74509166 -64.0625 6.4375 C-63.25039062 6.26347656 -62.43828125 6.08945313 -61.6015625 5.91015625 C-58.94580868 5.4609732 -56.36679977 5.17326376 -53.6875 4.9375 C-50.35113346 4.62411743 -47.16358944 4.15282767 -43.8984375 3.40234375 C-29.28980354 0.17160224 -14.89824709 -0.0157313 0 0 Z M-80.4375 96.375 C-83.92559191 97.14530122 -83.92559191 97.14530122 -87.4375 98.375 C-87.7675 99.365 -88.0975 100.355 -88.4375 101.375 C-86.62788423 103.00331762 -86.62788423 103.00331762 -84.4375 104.375 C-81.37354785 103.69476074 -81.37354785 103.69476074 -80.1875 101.5 C-79.14332012 99.23430528 -79.14332012 99.23430528 -80.4375 96.375 Z " fill="#000000" transform="translate(197.4375,147.625)"/>
</svg>
